<svg width="64" height="64" xmlns="http://www.w3.org/2000/svg" xmlns:xlink="http://www.w3.org/1999/xlink">
  <defs/>
  <g>
    <path stroke="none" fill="#FFFFFF" d="M51.9 13.25 Q53.5 13 54.65 14 L54.7 14.05 54.8 14.1 Q56 15.15 56 16.8 L56 42.65 Q56 43.35 55.5 43.95 55 44.5 54.3 44.6 L10.3 50.85 9.2 50.7 8.35 49.95 Q8 49.45 8 48.85 L8 22.65 Q8 21.3 8.9 20.3 L8.95 20.3 Q9.7 19.35 10.9 19.15 L11.1 19.1 51.9 13.25 M23 36 L23 26 20 26 20 39 29 39 29 36 23 36 M39 39 Q40.6 39 41.8 37.8 43 36.65 43 35 43 33.6 42.1 32.5 43 31.45 43 30 43 28.4 41.8 27.2 40.6 26 39 26 L32 26 32 39 39 39 M39 31 L35 31 35 29 39 29 Q39.45 29 39.7 29.3 L40 30 39.7 30.7 39 31 M39 36 L35 36 35 34 39 34 Q39.45 34 39.7 34.3 L40 35 39.7 35.7 39 36"/>
  </g>
</svg>