<svg width="64" height="64" xmlns="http://www.w3.org/2000/svg" xmlns:xlink="http://www.w3.org/1999/xlink">
  <defs/>
  <g>
    <path stroke="none" fill="#FFFFFF" d="M53.65 13.75 Q54.85 13.9 55.45 15.05 56.05 16.2 55.7 17.4 52.65 25.3 52.65 30.8 52.65 36.55 55.85 45.25 56.2 46.35 55.7 47.45 55.15 48.5 53.95 48.75 L18.95 55.95 Q17.9 56.2 17.1 55.5 13.9 52.6 11.65 48.05 8 40.65 8 30.8 8 20.7 11.8 14.2 14.15 10.25 17.3 8.3 17.9 7.9 18.65 8.05 L53.65 13.75 M41.5 30.5 L36.5 30.5 36.5 33.5 39.35 33.5 38.95 33.95 Q37.9 35 36.5 35 L35.5 34.85 34 33.95 Q33 32.95 33 31.55 L33 31.5 Q33.05 30.05 34 29.05 L34.05 29 Q35.05 28 36.5 28 37.95 28 38.95 29 39.4 29.45 40 29.45 40.6 29.45 41.05 29 L41.5 27.95 Q41.5 27.35 41.05 26.9 39.15 25 36.5 25 33.85 25 31.9 26.9 30.05 28.75 30 31.5 30 34.15 31.9 36.05 33.85 38 36.5 38 39.15 38 41.05 36.1 L41.1 36.05 Q42.75 34.45 43 32.2 L42.85 31.35 42.3 30.75 41.5 30.5 M23 35 L23 25 20 25 20 38 29 38 29 35 23 35"/>
  </g>
</svg>