<svg width="64" height="64" xmlns="http://www.w3.org/2000/svg" xmlns:xlink="http://www.w3.org/1999/xlink">
  <defs/>
  <g>
    <path stroke="none" fill="#FFFFFF" d="M12.1 13.25 L52.9 19.1 53.1 19.15 Q54.3 19.35 55.05 20.3 L55.1 20.3 Q56 21.3 56 22.65 L56 48.85 55.65 49.95 54.8 50.7 53.7 50.85 9.7 44.6 Q9 44.5 8.5 43.95 8 43.35 8 42.65 L8 16.8 Q8 15.15 9.2 14.1 L9.3 14.05 9.35 14 Q10.5 13 12.1 13.25 M40 31 L36 31 36 29 40 29 Q40.45 29 40.7 29.3 L41 30 40.7 30.7 Q40.45 31 40 31 M40 36 L36 36 36 34 40 34 Q40.45 34 40.7 34.3 L41 35 40.7 35.7 Q40.45 36 40 36 M22 33 L22 29 25 29 Q25.85 29 26.4 29.55 27 30.15 27 31 27 31.85 26.4 32.4 25.85 33 25.05 33 L22 33 M25 36 L26 35.9 26 36 27 39 30 39 28.5 34.5 Q30 33.05 30 31 30 28.95 28.5 27.45 27.05 26 25 26 L19 26 19 39 22 39 22 36 25 36 M40 39 Q41.6 39 42.8 37.8 44 36.65 44 35 44 33.6 43.1 32.5 44 31.45 44 30 44 28.4 42.8 27.2 41.6 26 40 26 L33 26 33 39 40 39"/>
  </g>
</svg>