<svg width="64" height="64" xmlns="http://www.w3.org/2000/svg" xmlns:xlink="http://www.w3.org/1999/xlink">
  <defs/>
  <g>
    <path stroke="none" fill="#FFFFFF" d="M10.35 13.75 L45.35 8.05 Q46.1 7.9 46.7 8.3 49.85 10.25 52.2 14.2 56 20.7 56 30.8 56 40.65 52.35 48.05 50.1 52.6 46.9 55.5 46.1 56.2 45.05 55.95 L10.05 48.75 Q8.85 48.5 8.3 47.45 7.8 46.35 8.15 45.25 11.35 36.55 11.35 30.8 11.35 25.3 8.3 17.4 7.95 16.2 8.55 15.05 9.15 13.9 10.35 13.75 M44.5 30.5 L39.5 30.5 39.5 33.5 42.35 33.5 41.95 33.95 Q40.9 35 39.5 35 L38.5 34.85 37 33.95 Q36 32.95 36 31.55 L36 31.5 Q36.05 30.05 37 29.05 L37.05 29 Q38.05 28 39.5 28 40.95 28 41.95 29 42.4 29.45 43 29.45 43.6 29.45 44.05 29 L44.5 27.95 Q44.5 27.35 44.05 26.9 42.15 25 39.5 25 36.85 25 34.9 26.9 33.05 28.75 33 31.5 33 34.15 34.9 36.05 36.85 38 39.5 38 42.15 38 44.05 36.1 L44.1 36.05 Q45.75 34.45 46 32.2 L45.85 31.35 45.3 30.75 44.5 30.5 M11.05 46.2 L11 46.15 11 46.2 11.05 46.2 M24 32 L24 28 27 28 Q27.85 28 28.4 28.55 29 29.15 29 30 29 30.85 28.4 31.4 27.85 32 27.05 32 L24 32 M27 35 L28 34.9 28 35 29 38 32 38 30.5 33.5 Q32 32.05 32 30 32 27.95 30.5 26.45 29.05 25 27 25 L21 25 21 38 24 38 24 35 27 35"/>
    <path stroke="none" fill="#996633" d="M11.05 46.2 L11 46.2 11 46.15 11.05 46.2"/>
  </g>
</svg>