<svg width="64" height="64" xmlns="http://www.w3.org/2000/svg" xmlns:xlink="http://www.w3.org/1999/xlink">
  <defs/>
  <g>
    <path stroke="none" fill="#FFFFFF" d="M14.5 49.5 Q8 43 8 33.75 L8 16.15 Q8 15.35 8.5 14.8 9 14.25 9.75 14.15 L53.7 8.05 54.95 8.25 55.8 9.1 56 10.3 52.25 36.8 Q51.15 45 44.95 50.5 L44.85 50.6 Q38.5 56 30.2 56 21 56 14.5 49.5 M32 28 L36 28 36 38 39 38 39 28 43 28 43 25 32 25 32 28 M22 32 L22 28 25 28 Q25.85 28 26.4 28.55 27 29.15 27 30 27 30.85 26.4 31.4 25.85 32 25.05 32 L22 32 M25 35 L26 34.9 26 35 27 38 30 38 28.5 33.5 Q30 32.05 30 30 30 27.95 28.5 26.45 27.05 25 25 25 L19 25 19 38 22 38 22 35 25 35"/>
  </g>
</svg>