<svg width="64" height="64" xmlns="http://www.w3.org/2000/svg" xmlns:xlink="http://www.w3.org/1999/xlink">
  <defs/>
  <g>
    <path stroke="none" fill="#FFFFFF" d="M23.05 44.45 Q24.5 45.05 25.95 44.45 27.4 43.85 28 42.45 28.6 41 28 39.55 27.4 38.1 25.95 37.5 L22.9 36.25 Q24.8 35.55 26.7 36.3 28.65 37.15 29.45 39.1 30.25 41.05 29.45 42.95 28.6 44.9 26.65 45.75 24.7 46.55 22.75 45.75 20.95 45 20.1 43.25 L23.05 44.45 M35.35 25.8 Q35.35 27.7 36.7 29 38 30.35 39.9 30.35 41.8 30.35 43.1 29 44.45 27.7 44.45 25.8 44.45 23.95 43.1 22.6 41.8 21.3 39.9 21.3 38 21.3 36.7 22.6 35.35 23.95 35.35 25.8 M45.9 25.85 Q45.9 28.35 44.15 30.1 42.4 31.85 39.9 31.85 37.4 31.85 35.6 30.1 33.85 28.35 33.85 25.85 33.85 23.35 35.6 21.55 37.4 19.8 39.9 19.8 42.4 19.8 44.15 21.55 45.9 23.35 45.9 25.85 M31.95 8 Q41.95 8 48.95 15.05 56 22.1 56 32.05 56 41.95 48.95 49 41.95 56 31.95 56 23.8 56 17.35 51.1 11 46.25 8.8 38.55 L18.05 42.35 Q18.5 44.75 20.4 46.3 22.25 47.85 24.7 47.85 27.55 47.85 29.55 45.85 31.5 43.85 31.5 41.05 L31.5 40.7 39.7 34.9 39.9 34.9 Q43.65 34.9 46.3 32.25 48.95 29.6 48.95 25.85 48.95 22.1 46.3 19.45 43.65 16.8 39.9 16.8 36.15 16.8 33.5 19.45 30.8 22.1 30.8 25.85 L30.8 25.95 25.1 34.25 24.7 34.25 Q22.6 34.25 20.9 35.45 L8 30.1 Q8.75 20.8 15.6 14.45 22.5 8 31.95 8"/>
  </g>
</svg>