<?xml version="1.0" encoding="UTF-8" standalone="no"?>
<!-- Generator: Adobe Illustrator 19.0.0, SVG Export Plug-In . SVG Version: 6.00 Build 0)  -->

<svg
   version="1.1"
   id="Layer_1"
   x="0px"
   y="0px"
   viewBox="0 0 512.368 512.368"
   style="enable-background:new 0 0 512.368 512.368;"
   xml:space="preserve"
   sodipodi:docname="icon.svg"
   inkscape:version="1.2.1 (9c6d41e410, 2022-07-14)"
   xmlns:inkscape="http://www.inkscape.org/namespaces/inkscape"
   xmlns:sodipodi="http://sodipodi.sourceforge.net/DTD/sodipodi-0.dtd"
   xmlns="http://www.w3.org/2000/svg"
   xmlns:svg="http://www.w3.org/2000/svg"><defs
   id="defs192" /><sodipodi:namedview
   id="namedview190"
   pagecolor="#ffffff"
   bordercolor="#666666"
   borderopacity="1.0"
   inkscape:showpageshadow="2"
   inkscape:pageopacity="0.0"
   inkscape:pagecheckerboard="true"
   inkscape:deskcolor="#d1d1d1"
   showgrid="false"
   inkscape:zoom="1.0269759"
   inkscape:cx="304.29145"
   inkscape:cy="360.28108"
   inkscape:window-width="1857"
   inkscape:window-height="1177"
   inkscape:window-x="1912"
   inkscape:window-y="-8"
   inkscape:window-maximized="1"
   inkscape:current-layer="Layer_1" />
















<g
   id="g366"
   transform="translate(2.0397534,5.9346841)"
   inkscape:label="icon"><path
     style="fill:#478cbf;fill-opacity:1;stroke-width:0.999996;stroke-linecap:square;stop-color:#000000"
     d="m 199.14023,118.33595 -12.26442,-12.26441 c -6.80308,-6.803081 -16.92831,-9.054952 -25.97352,-5.77656 l -55.45945,20.10103 c -9.409849,3.41056 -16.861828,10.75921 -20.403439,20.12051 L 33.249005,277.41053 c -14.000167,37.00569 -5.241616,78.77317 22.445562,107.03703 l 1.554084,1.58646 c 19.199968,19.59992 50.304719,20.96664 71.149779,3.12626 L 173.8681,350.2448 h 160.5523 l 45.46968,38.91548 c 20.84508,17.84038 51.94983,16.47366 71.14977,-3.12626 l 1.55412,-1.58646 c 27.68709,-28.2639 36.44568,-70.03134 22.44549,-107.03703 L 423.24908,140.51652 c -3.54158,-9.3613 -10.99355,-16.70995 -20.40343,-20.12051 l -55.45944,-20.10103 c -9.04521,-3.278383 -19.17045,-1.026521 -25.97352,5.77656 l -12.26442,12.26441 z"
     id="path31-7-6"
     sodipodi:nodetypes="cssssssssccsssssssscc"
     inkscape:label="bod" /><path
     id="path33-7-8"
     style="color:#000000;fill:#ffffff;fill-opacity:1;stroke-width:1.06667;stroke-linejoin:round"
     d="m 41.232014,256.43256 c -1.145799,2.803 -2.291589,5.606 -3.437388,8.409 7.853566,3.21041 15.874585,5.99648 23.966408,8.5414 2.035778,9.13711 3.942674,18.35067 6.725927,27.28359 6.031468,4.68312 14.845546,4.51023 22.058482,6.96145 6.108988,1.84206 13.701997,4.17059 17.263957,-2.96177 4.84636,-5.4097 9.60253,-10.89959 14.30803,-16.43205 16.96841,3.3108 34.05101,6.02128 51.20071,8.18835 3.60305,8.59576 6.92519,17.34825 11.01404,25.7159 5.03371,3.32836 11.9031,1.95183 17.72853,3.11158 5.94393,-0.11073 12.46946,2.4554 18.01659,0.0646 5.50561,-7.52698 10.33459,-15.55904 15.30634,-23.45624 12.49991,0.4672 25.02044,0.4493 37.52032,0 4.9744,7.89599 9.80113,15.93331 15.3063,23.45624 5.54742,2.39073 12.07325,-0.17546 18.01747,-0.0646 5.82518,-1.15994 12.69491,0.21744 17.72797,-3.11188 4.08842,-8.36797 7.41248,-17.11971 11.01549,-25.7156 17.15028,-2.16739 34.23294,-4.8775 51.20072,-8.18835 6.12492,7.04576 12.05196,14.31498 18.6086,20.9521 7.44727,1.38002 15.13534,-2.79876 22.61578,-3.89323 6.86948,-0.99911 14.47693,-3.14765 14.35851,-11.45055 1.73166,-6.78606 3.32365,-13.60777 4.77364,-20.45954 8.09186,-2.54492 16.11285,-5.331 23.96644,-8.5414 -1.14582,-2.803 -2.29155,-5.606 -3.43737,-8.409 -8.7642,3.69882 -17.87984,6.4966 -26.842,9.61338 -3.6703,4.17553 -3.00131,10.61548 -4.87741,15.75106 -2.18153,4.42566 -0.49399,12.79588 -6.31953,13.67084 -6.68725,1.75324 -13.40776,3.37883 -20.16018,4.86165 -6.27858,-6.78551 -12.16179,-13.94881 -18.38975,-20.76057 -5.57768,-1.73421 -11.54793,1.51701 -17.29718,1.87984 -14.3012,2.63544 -28.75257,4.45616 -43.11251,6.62242 -4.3581,3.48473 -4.8437,9.95628 -7.52511,14.73209 -2.70258,3.81792 -2.5528,11.57816 -7.46458,12.43261 -7.18918,0.73121 -14.38848,1.36373 -21.59568,1.88864 -5.20392,-7.60123 -9.92998,-15.53609 -15.01927,-23.1956 -4.17412,-2.43861 -9.40517,-0.44019 -14.05821,-0.8891 -10.81807,0.17802 -21.65512,-0.0636 -32.45784,-0.22859 -4.74117,2.55484 -6.20732,8.64496 -9.53649,12.73186 -3.12893,3.54496 -4.78131,10.18308 -9.07227,11.47124 -7.45333,-0.55824 -14.898,-1.2311 -22.33166,-2.00839 -3.78776,-8.4271 -7.10407,-17.07842 -10.88729,-25.49194 -4.87833,-3.42975 -11.70899,-2.20537 -17.41161,-3.67734 -14.27874,-1.92634 -28.4566,-4.61482 -42.63778,-7.05111 -5.23217,1.94349 -7.72234,7.94007 -11.78009,11.62473 -3.87313,2.80702 -6.19747,10.5884 -11.402935,9.34705 -6.929799,-1.54506 -13.816986,-3.27562 -20.67909,-5.09679 -2.444425,-8.88222 -4.326011,-17.92164 -6.518729,-26.85197 -3.973598,-4.13129 -10.655151,-4.08015 -15.743299,-6.5559 -4.272743,-1.50457 -8.511155,-3.10884 -12.705003,-4.82011 z"
     inkscape:label="white"
     sodipodi:nodetypes="ccccccccccccccccccccccccccccccccccccccccccccccccc" /><path
     d="m 194.39611,209.7241 c 0,24.41171 -19.77936,44.18709 -44.1832,44.18709 -24.39155,0 -44.17688,-19.77538 -44.17688,-44.18709 0,-24.39561 19.78533,-44.16077 44.17688,-44.16077 24.40384,0 44.1832,19.76516 44.1832,44.16077"
     fill="#ffffff"
     id="path20-6"
     style="stroke-width:1.50807" /><path
     d="m 183.76476,212.34477 c 0,16.19221 -13.12347,29.3156 -29.3278,29.3156 -16.1962,0 -29.32781,-13.12339 -29.32781,-29.3156 0,-16.19226 13.13161,-29.3279 29.32781,-29.3279 16.20433,0 29.3278,13.13564 29.3278,29.3279"
     fill="#414042"
     id="path21-1"
     style="stroke-width:1.50807" /><path
     d="m 254.14068,257.93104 c -7.85512,0 -14.22138,-5.78901 -14.22138,-12.92506 v -40.67479 c 0,-7.12999 6.36626,-12.92504 14.22138,-12.92504 7.85503,0 14.23549,5.79505 14.23549,12.92504 v 40.67479 c 0,7.13605 -6.38046,12.92506 -14.23549,12.92506"
     fill="#ffffff"
     id="path22-0"
     style="stroke-width:1.50807" /><path
     d="m 313.89248,209.7241 c 0,24.41171 19.77936,44.18709 44.18718,44.18709 24.38957,0 44.1729,-19.77538 44.1729,-44.18709 0,-24.39561 -19.78333,-44.16077 -44.1729,-44.16077 -24.40782,0 -44.18718,19.76516 -44.18718,44.16077"
     fill="#ffffff"
     id="path23-4"
     style="stroke-width:1.50807" /><path
     d="m 324.52636,212.34477 c 0,16.19221 13.1195,29.3156 29.31154,29.3156 16.20848,0 29.32789,-13.12339 29.32789,-29.3156 0,-16.19226 -13.11941,-29.3279 -29.32789,-29.3279 -16.19204,0 -29.31154,13.13564 -29.31154,29.3279"
     fill="#414042"
     id="path24-3"
     style="stroke-width:1.50807" /></g></svg>
