<svg width="64" height="64" xmlns="http://www.w3.org/2000/svg" xmlns:xlink="http://www.w3.org/1999/xlink">
  <defs/>
  <g>
    <path stroke="none" fill="#FFFFFF" d="M26.3 17.65 Q28.45 15.95 31 14.95 33.65 14 36.35 14 L51.65 14.05 Q53 14 54.15 14.9 55.15 15.65 55.8 17 L56 19.9 Q56.05 21.6 55.25 22.65 54.15 24.7 50.85 24.8 L45.75 25.2 40.6 25.6 Q38 25.85 37 27.7 L35.7 31.85 Q34.9 33.85 33.6 35.7 L29.35 41.35 25.1 46.95 Q23.45 48.7 21.15 49.45 18.8 50.25 16.5 49.85 12.45 49.5 9.9 45.9 7.35 42.3 8.2 38.35 8.8 35.3 10.45 33.45 L18.4 25.55 26.3 17.65"/>
  </g>
</svg>