<svg width="64" height="64" xmlns="http://www.w3.org/2000/svg" xmlns:xlink="http://www.w3.org/1999/xlink">
  <defs/>
  <g>
    <path stroke="none" fill="#FFFFFF" d="M39 10 L49 10 Q50.75 10 51.9 10.6 54 11.75 54 15 L54 25 43 25 43 19 Q43 16.5 41.25 14.75 40.25 13.75 39 13.35 L39 10 M20 28 L31.1 28 Q31.35 29.85 32.75 31.25 34.5 33 37 33 39.5 33 41.25 31.25 42.65 29.85 42.95 28 L54 28 54 37.5 Q53.8 44.25 49 49 44.25 53.8 37.5 54 L36.5 54 Q29.75 53.8 24.95 49 20.2 44.25 20 37.5 L20 28 M25 10 L35 10 35 13.35 Q33.75 13.75 32.75 14.75 31 16.5 31 19 L31 25 20 25 20 15 Q20 11.75 22.15 10.6 23.25 10 25 10 M34.9 16.9 Q35.75 16 37 16 38.25 16 39.15 16.9 40 17.75 40 19 L40 27 39.85 28 39.15 29.15 Q38.25 30 37 30 35.75 30 34.9 29.15 34.4 28.65 34.2 28 L34 27 34 19 Q34 17.75 34.9 16.9 M11 10 L15 10 Q17 10 17 12 L17 23 Q17 25 15 25 L11 25 Q9 25 9 23 L9 12 Q9 10 11 10"/>
    <path stroke="none" fill="#E73246" d="M11 28 L15 28 Q17 28 17 30 L17 41 Q17 43 15 43 L11 43 Q9 43 9 41 L9 30 Q9 28 11 28"/>
  </g>
</svg>