<svg width="64" height="64" xmlns="http://www.w3.org/2000/svg" xmlns:xlink="http://www.w3.org/1999/xlink">
  <defs/>
  <g>
    <path stroke="none" fill="#FFFFFF" d="M42.5 20 L31.5 20 Q28 20 28 23.5 L28 39.5 Q28 43 31.5 43 L42.5 43 Q46 43 46 39.5 L46 23.5 Q46 20 42.5 20 M31.5 23 L42.5 23 Q43 23 43 23.5 L43 39.5 Q43 40 42.5 40 L31.5 40 Q31 40 31 39.5 L31 23.5 Q31 23 31.5 23 M21.2 8.9 Q22.1 8 23.35 8 L53 8 Q54.25 8 55.1 8.9 56 9.75 56 11 L56 40.65 Q56 41.9 55.1 42.8 L48.95 49 Q41.95 56 32 56 22.05 56 15.05 48.95 8 41.95 8 32 8 22.05 15 15.05 L21.2 8.9 M24.8 31.85 Q26 30.7 26 29 26 27.35 24.8 26.15 23.65 25 22.05 25 L19.5 25 Q18.9 25 18.45 25.45 18 25.9 18 26.5 L18 36.5 Q18 37.1 18.45 37.55 18.9 38 19.5 38 20.1 38 20.55 37.55 L21 36.5 21 33 21.4 33 23.45 37.2 Q23.75 37.75 24.35 37.95 L25.5 37.85 26.25 37 Q26.4 36.4 26.15 35.85 L24.35 32.25 24.8 31.8 24.8 31.85 M37.5 29.9 L37.3 30 36 30 36 28 37.05 28 Q37.45 28 37.7 28.25 L38 29 37.75 29.65 37.7 29.7 37.5 29.9 M41 29 Q41 27.35 39.8 26.15 38.65 25 37.05 25 L34.5 25 Q33.9 25 33.45 25.45 33 25.9 33 26.5 L33 36.5 Q33 37.1 33.45 37.55 33.9 38 34.5 38 L37.15 38 38.85 37.6 39 37.5 39.8 36.8 39.8 36.85 Q41 35.7 41 34 41 32.55 40.15 31.5 41 30.45 41 29 M37.3 33 Q37.5 33.05 37.7 33.25 L38 34 37.75 34.65 37.7 34.7 37.5 34.9 37.15 35 36 35 36 33 37.3 33 M22.35 30 L21 30 21 28 22.05 28 22.7 28.25 23 29 22.75 29.65 22.7 29.7 22.5 29.9 22.35 30"/>
  </g>
</svg>