<svg width="64" height="64" xmlns="http://www.w3.org/2000/svg" xmlns:xlink="http://www.w3.org/1999/xlink">
  <defs/>
  <g>
    <path stroke="none" fill="#FFFFFF" d="M55.1 36.6 Q50.25 41.5 48.25 50.75 L47.7 51.95 46.75 52.75 44.1 53.95 44.05 54 Q38.7 56 32 56 25.55 56 20.3 54.1 L20.2 54.05 20.05 54 19.85 53.9 17.05 52.5 Q16.05 52 15.6 50.95 13.8 46.55 9.7 44.55 8.9 44.2 8.45 43.45 8 42.7 8 41.8 L8 34.85 Q8 33.55 8.9 32.7 9.8 31.8 11.05 31.8 32.85 32.15 52 25.2 L53.9 25.15 Q54.8 25.45 55.4 26.25 56 27.05 56 28.05 L56 34.45 Q56 35.7 55.1 36.6 M33 43.45 L33 48.5 Q33 49.1 33.45 49.55 33.9 50 34.5 50 L35.55 49.55 Q36 49.1 36 48.5 L36 43.55 36.05 43.4 36.15 43.3 Q36.5 43 37 43 37.45 43 37.85 43.3 L37.9 43.3 38 43.45 38 48.5 Q38 49.1 38.45 49.55 38.9 50 39.5 50 L40.55 49.55 Q41 49.1 41 48.5 L41 43.45 Q41.05 41.95 39.65 40.9 L39.7 40.95 Q38.55 40 37 40 35.4 40 34.3 40.95 33.5 41.5 33.2 42.45 L33 43.45 M33 18 L30 18 30 21 27 21 27 8 33 8 Q35.05 8 36.5 9.45 38 10.95 38 13 38 15.05 36.5 16.5 L38 21 35 21 34 18 34 17.9 33 18 M30 15 L33.05 15 Q33.85 15 34.4 14.4 35 13.85 35 13 35 12.15 34.4 11.55 33.85 11 33 11 L30 11 30 15 M27 48.5 L27 45 29.5 45 Q30.1 45 30.55 44.55 L31 43.5 Q31 42.9 30.55 42.45 30.1 42 29.5 42 L27 42 27 40 30.5 40 Q31.1 40 31.55 39.55 32 39.1 32 38.5 32 37.9 31.55 37.45 31.1 37 30.5 37 L25.5 37 Q24.9 37 24.45 37.45 24 37.9 24 38.5 L24 48.5 Q24 49.1 24.45 49.55 24.9 50 25.5 50 L26.55 49.55 27 48.5"/>
  </g>
</svg>