<svg width="64" height="64" xmlns="http://www.w3.org/2000/svg" xmlns:xlink="http://www.w3.org/1999/xlink">
  <defs/>
  <g>
    <path stroke="none" fill="#FFFFFF" d="M8.9 36.6 Q8 35.7 8 34.45 L8 28.05 Q8 27.05 8.6 26.25 9.2 25.45 10.1 25.15 L12 25.2 Q31.15 32.15 52.95 31.8 54.2 31.8 55.1 32.7 56 33.55 56 34.85 L56 41.8 55.55 43.45 54.3 44.55 Q50.2 46.55 48.4 50.95 47.95 52 46.95 52.5 L44.15 53.9 43.95 54 43.8 54.05 43.7 54.1 Q38.45 56 32 56 25.3 56 19.95 54 L19.9 53.95 Q18.3 53.35 17.25 52.75 16.7 52.45 16.3 51.95 L15.75 50.75 Q13.75 41.5 8.9 36.6 M33 43.45 L33 48.5 Q33 49.1 33.45 49.55 33.9 50 34.5 50 L35.55 49.55 Q36 49.1 36 48.5 L36 43.55 36.05 43.4 36.15 43.3 Q36.5 43 37 43 37.45 43 37.85 43.3 L37.9 43.3 38 43.45 38 48.5 Q38 49.1 38.45 49.55 38.9 50 39.5 50 L40.55 49.55 Q41 49.1 41 48.5 L41 43.45 Q41.05 41.95 39.65 40.9 L39.7 40.95 Q38.55 40 37 40 35.4 40 34.3 40.95 33.5 41.5 33.2 42.45 L33 43.45 M30 18 L36 18 36 21 27 21 27 8 30 8 30 18 M27 48.5 L27 45 29.5 45 Q30.1 45 30.55 44.55 L31 43.5 Q31 42.9 30.55 42.45 30.1 42 29.5 42 L27 42 27 40 30.5 40 Q31.1 40 31.55 39.55 32 39.1 32 38.5 32 37.9 31.55 37.45 31.1 37 30.5 37 L25.5 37 Q24.9 37 24.45 37.45 24 37.9 24 38.5 L24 48.5 Q24 49.1 24.45 49.55 24.9 50 25.5 50 L26.55 49.55 27 48.5"/>
  </g>
</svg>