<svg width="64" height="64" xmlns="http://www.w3.org/2000/svg" xmlns:xlink="http://www.w3.org/1999/xlink">
  <defs/>
  <g>
    <path stroke="none" fill="#FFFFFF" fill-opacity="0" d="M42.7 23.1 L41.7 24.6 Q40.35 25.95 38.65 26 L38.4 26 37.3 26 37.65 26.3 37.7 26.3 Q40 28.65 40 32 40 35.3 37.7 37.6 L37.3 38 38.4 38 38.65 38 Q40.35 38.05 41.7 39.4 42.8 40.45 43 42 L43 42.65 Q43 43.95 42.4 45 L41.8 45.85 41.7 45.95 39.75 48 35.3 52.6 35.3 52.65 Q33.85 54.05 32 54 30 54 28.7 52.6 L24.3 48 22.3 45.95 22.25 45.85 21.65 45 Q21 43.95 21 42.65 L21.05 42 Q21.2 40.55 22.25 39.5 23.55 38 25.6 38 L26.8 38 26.35 37.6 26.3 37.55 Q24 35.25 24 32 24 28.65 26.35 26.3 L26.7 26 25.6 26 Q23.55 26 22.25 24.5 21.65 23.9 21.35 23.1 21 22.3 21 21.35 L21.2 20.1 Q21.45 19 22.25 18.15 L22.3 18.05 23.7 16.6 28.7 11.4 Q30 10 32 10 33.85 9.95 35.3 11.35 L35.3 11.4 40.3 16.6 41.7 18.05 41.8 18.15 42.85 20.1 43 21.35 42.7 23.1 M30.85 13.5 L24.45 20.15 Q24 20.65 24 21.35 24 22.05 24.45 22.5 L24.5 22.55 25.6 23 30 23 30 27.4 Q29.15 27.75 28.45 28.45 27 29.9 27 32 27 34.05 28.45 35.5 29.15 36.2 30 36.6 L30 41 25.6 41 Q24.9 41 24.45 41.5 L24.15 42 Q24 42.3 24 42.65 24 43.35 24.45 43.85 L30.85 50.5 Q31.3 51 32 51 32.65 51 33.15 50.5 L39.55 43.85 Q40 43.35 40 42.65 L39.9 42 39.55 41.5 Q39.05 41 38.4 41 L34 41 34 36.6 35.55 35.5 Q37 34.05 37 32 37 29.9 35.55 28.45 L34 27.4 34 23 38.4 23 Q39 23 39.5 22.55 L39.55 22.5 Q40 22.05 40 21.35 40 20.65 39.55 20.15 L33.15 13.5 Q32.65 13 32 13 31.3 13 30.85 13.5"/>
    <path stroke="none" fill="#FFFFFF" d="M30.85 13.5 Q31.3 13 32 13 32.65 13 33.15 13.5 L39.55 20.15 Q40 20.65 40 21.35 40 22.05 39.55 22.5 L39.5 22.55 Q39 23 38.4 23 L34 23 34 27.4 35.55 28.45 Q37 29.9 37 32 37 34.05 35.55 35.5 L34 36.6 34 41 38.4 41 Q39.05 41 39.55 41.5 L39.9 42 40 42.65 Q40 43.35 39.55 43.85 L33.15 50.5 Q32.65 51 32 51 31.3 51 30.85 50.5 L24.45 43.85 Q24 43.35 24 42.65 24 42.3 24.15 42 L24.45 41.5 Q24.9 41 25.6 41 L30 41 30 36.6 Q29.15 36.2 28.45 35.5 27 34.05 27 32 27 29.9 28.45 28.45 29.15 27.75 30 27.4 L30 23 25.6 23 24.5 22.55 24.45 22.5 Q24 22.05 24 21.35 24 20.65 24.45 20.15 L30.85 13.5 M43 42 Q42.8 40.45 41.7 39.4 40.35 38.05 38.65 38 L38.4 38 37.3 38 37.7 37.6 Q40 35.3 40 32 40 28.65 37.7 26.3 L37.65 26.3 37.3 26 38.4 26 38.65 26 Q40.35 25.95 41.7 24.6 L42.7 23.1 Q46.1 23.8 49.45 24.95 L45.55 42 43 42 M42.85 20.1 L41.8 18.15 41.7 18.05 40.3 16.6 Q47.2 17.6 54.05 20.2 55.1 20.6 55.6 21.6 56.2 22.55 55.9 23.65 L51.25 44 Q50.85 45.2 49.85 46.25 48.1 47.95 45.75 48 L39.75 48 41.7 45.95 41.8 45.85 42.4 45 45.75 45 Q46.85 44.95 47.7 44.2 L47.75 44.1 48.4 43.15 53 23.05 53 23 52.95 23 Q47.9 21.05 42.85 20.1 M23.7 16.6 L22.3 18.05 22.25 18.15 Q21.45 19 21.2 20.1 16.1 21.05 11.05 23 L11.05 23.05 15.65 43.15 16.25 44.1 16.35 44.2 Q17.2 44.95 18.35 45 L21.65 45 22.25 45.85 22.3 45.95 24.3 48 18.25 48 Q15.9 47.95 14.15 46.25 13.15 45.2 12.75 44 L8.1 23.65 Q7.8 22.55 8.4 21.6 8.9 20.6 9.95 20.2 16.8 17.6 23.7 16.6 M21.35 23.1 Q21.65 23.9 22.25 24.5 23.55 26 25.6 26 L26.7 26 26.35 26.3 Q24 28.65 24 32 24 35.25 26.3 37.55 L26.35 37.6 26.8 38 25.6 38 Q23.55 38 22.25 39.5 21.2 40.55 21.05 42 L18.45 42 14.55 24.95 Q17.95 23.8 21.35 23.1"/>
  </g>
</svg>