<svg width="64" height="64" xmlns="http://www.w3.org/2000/svg" xmlns:xlink="http://www.w3.org/1999/xlink">
  <defs/>
  <g>
    <path stroke="none" fill="#FFFFFF" d="M47.4 21.15 Q39.7 19 32 19 24.3 19 16.6 21.15 L15.35 21 Q13.5 21 12.15 22.25 L12.05 22.3 11.5 22.85 11.05 23 11.05 23.05 11.1 23.25 8.55 25.65 8.1 23.65 Q7.8 22.55 8.4 21.6 8.9 20.6 9.95 20.2 20.95 16 32 16 43.05 16 54.05 20.2 55.1 20.6 55.6 21.6 56.2 22.55 55.9 23.65 L55.45 25.65 52.95 23.25 53 23.05 53 23 52.95 23 52.5 22.85 51.95 22.3 51.85 22.25 Q50.5 21 48.65 21 L47.4 21.15 M19.5 23.5 Q25.75 22 32 22 38.25 22 44.5 23.5 44 24.45 44 25.6 L44 27 38.3 27 37.7 26.35 Q35.35 24 32 24 28.75 24 26.45 26.3 L26.4 26.35 25.7 27.1 25.7 27 20 27 20 25.6 Q20 24.45 19.5 23.5 M56.5 30.85 Q57 31.3 57 32 57 32.65 56.5 33.15 L49.85 39.55 49.15 39.95 48.65 40 Q47.95 40 47.5 39.55 47 39.05 47 38.4 L47 34 36.6 34 35.55 35.55 Q34.1 37 32 37 29.95 37 28.5 35.55 27.8 34.85 27.45 34 L17 34 17 38.4 Q17 39.05 16.5 39.55 16.05 40 15.35 40 L14.95 39.95 Q14.5 39.85 14.15 39.55 L7.5 33.15 Q7 32.65 7 32 7 31.3 7.5 30.85 L14.15 24.45 Q14.65 24 15.35 24 15.95 24 16.4 24.35 L16.5 24.45 Q17 24.9 17 25.6 L17 30 27.4 30 Q27.8 29.15 28.5 28.45 29.95 27 32 27 34.1 27 35.55 28.45 L36.6 30 47 30 47 25.6 Q47 24.9 47.5 24.45 L47.6 24.35 Q48.05 24 48.65 24 49.35 24 49.85 24.45 L56.5 30.85 M51.75 41.9 L51.25 44 Q50.85 45.2 49.85 46.25 48.1 47.95 45.75 48 L18.25 48 Q15.9 47.95 14.15 46.25 13.15 45.2 12.75 44 L12.3 41.9 Q13.6 43 15.35 43 L15.65 43 15.65 43.15 16.25 44.1 16.35 44.2 Q17.2 44.95 18.35 45 L45.75 45 Q46.85 44.95 47.7 44.2 L47.75 44.1 48.4 43.15 48.45 43 48.65 43 Q50.4 43 51.75 41.9 M45.6 41.9 L45.55 42 18.45 42 18.45 41.9 18.6 41.7 Q20.05 40.25 20 38.4 L20 37 25.7 37 25.7 36.95 26.4 37.7 Q28.7 40 32 40 35.35 40 37.7 37.7 L37.7 37.65 38.25 37 44 37 44 38.4 Q43.95 40.25 45.4 41.7 L45.6 41.9"/>
    <path stroke="none" fill="#FFFFFF" fill-opacity="0" d="M45.6 41.9 L45.4 41.7 Q43.95 40.25 44 38.4 L44 37 38.25 37 37.7 37.65 37.7 37.7 Q35.35 40 32 40 28.7 40 26.4 37.7 L25.7 36.95 25.7 37 20 37 20 38.4 Q20.05 40.25 18.6 41.7 L18.45 41.9 Q17.3 42.9 15.65 43 L15.35 43 Q13.6 43 12.3 41.9 L12.15 41.8 12.05 41.7 5.4 35.3 5.35 35.3 Q3.95 33.85 4 32 4 30 5.4 28.7 L8.55 25.65 11.1 23.25 11.5 22.85 12.05 22.3 12.15 22.25 Q13.5 21 15.35 21 L16.6 21.15 Q17.7 21.45 18.5 22.25 L19.5 23.5 Q20 24.45 20 25.6 L20 27 25.7 27 25.7 27.1 26.4 26.35 26.45 26.3 Q28.75 24 32 24 35.35 24 37.7 26.35 L38.3 27 44 27 44 25.6 Q44 24.45 44.5 23.5 44.85 22.8 45.5 22.25 46.3 21.45 47.4 21.15 L48.65 21 Q50.5 21 51.85 22.25 L51.95 22.3 52.5 22.85 52.95 23.25 55.45 25.65 58.6 28.7 Q60 30 60 32 60.05 33.85 58.65 35.3 L58.6 35.3 51.95 41.7 51.85 41.8 51.75 41.9 Q50.4 43 48.65 43 L48.45 43 Q46.7 42.95 45.6 41.9 M56.5 30.85 L49.85 24.45 Q49.35 24 48.65 24 48.05 24 47.6 24.35 L47.5 24.45 Q47 24.9 47 25.6 L47 30 36.6 30 35.55 28.45 Q34.1 27 32 27 29.95 27 28.5 28.45 27.8 29.15 27.4 30 L17 30 17 25.6 Q17 24.9 16.5 24.45 L16.4 24.35 Q15.95 24 15.35 24 14.65 24 14.15 24.45 L7.5 30.85 Q7 31.3 7 32 7 32.65 7.5 33.15 L14.15 39.55 Q14.5 39.85 14.95 39.95 L15.35 40 Q16.05 40 16.5 39.55 17 39.05 17 38.4 L17 34 27.45 34 Q27.8 34.85 28.5 35.55 29.95 37 32 37 34.1 37 35.55 35.55 L36.6 34 47 34 47 38.4 Q47 39.05 47.5 39.55 47.95 40 48.65 40 L49.15 39.95 49.85 39.55 56.5 33.15 Q57 32.65 57 32 57 31.3 56.5 30.85"/>
  </g>
</svg>