<svg width="64" height="64" xmlns="http://www.w3.org/2000/svg" xmlns:xlink="http://www.w3.org/1999/xlink">
  <defs/>
  <g>
    <path stroke="none" fill="#FFFFFF" d="M42.4 45 L45.75 45 Q46.85 44.95 47.7 44.2 L47.75 44.1 48.4 43.15 53 23.05 53 23 52.95 23 Q42.5 19 32 19 21.5 19 11.05 23 L11.05 23.05 15.65 43.15 16.25 44.1 16.35 44.2 Q17.2 44.95 18.35 45 L21.65 45 22.25 45.85 22.3 45.95 24.3 48 18.25 48 Q15.9 47.95 14.15 46.25 13.15 45.2 12.75 44 L8.1 23.65 Q7.8 22.55 8.4 21.6 8.9 20.6 9.95 20.2 20.95 16 32 16 43.05 16 54.05 20.2 55.1 20.6 55.6 21.6 56.2 22.55 55.9 23.65 L51.25 44 Q50.85 45.2 49.85 46.25 48.1 47.95 45.75 48 L39.75 48 41.7 45.95 41.8 45.85 42.4 45 M21.05 42 L18.45 42 14.55 24.95 Q23.25 22 32 22 40.75 22 49.45 24.95 L45.55 42 43 42 Q42.8 40.45 41.7 39.4 40.35 38.05 38.65 38 L38.4 38 37.3 38 37.65 37.7 37.7 37.7 Q40 35.35 40 32 40 28.7 37.7 26.4 35.3 24 32 24 28.7 24 26.35 26.4 L26.3 26.45 Q24 28.75 24 32 24 35.35 26.35 37.7 L26.7 38 25.6 38 Q23.55 38 22.25 39.5 21.2 40.55 21.05 42 M30.85 50.5 L24.45 43.85 Q24 43.35 24 42.65 24 42.3 24.15 42 L24.45 41.5 Q24.9 41 25.6 41 L30 41 30 36.6 28.45 35.55 Q27 34.1 27 32 27 29.95 28.45 28.5 29.9 27 32 27 34.05 27 35.55 28.5 37 29.95 37 32 37 34.1 35.55 35.55 L34 36.6 34 41 38.4 41 Q39.05 41 39.55 41.5 L39.9 42 40 42.65 Q40 43.35 39.55 43.85 L33.15 50.5 Q32.65 51 32 51 31.3 51 30.85 50.5"/>
    <path stroke="none" fill="#FFFFFF" fill-opacity="0" d="M30.85 50.5 Q31.3 51 32 51 32.65 51 33.15 50.5 L39.55 43.85 Q40 43.35 40 42.65 L39.9 42 39.55 41.5 Q39.05 41 38.4 41 L34 41 34 36.6 35.55 35.55 Q37 34.1 37 32 37 29.95 35.55 28.5 34.05 27 32 27 29.9 27 28.45 28.5 27 29.95 27 32 27 34.1 28.45 35.55 L30 36.6 30 41 25.6 41 Q24.9 41 24.45 41.5 L24.15 42 Q24 42.3 24 42.65 24 43.35 24.45 43.85 L30.85 50.5 M42.4 45 L41.8 45.85 41.7 45.95 39.75 48 35.3 52.6 35.3 52.65 Q33.85 54.05 32 54 30 54 28.7 52.6 L24.3 48 22.3 45.95 22.25 45.85 21.65 45 Q21 43.95 21 42.65 L21.05 42 Q21.2 40.55 22.25 39.5 23.55 38 25.6 38 L26.7 38 26.35 37.7 Q24 35.35 24 32 24 28.75 26.3 26.45 L26.35 26.4 Q28.7 24 32 24 35.3 24 37.7 26.4 40 28.7 40 32 40 35.35 37.7 37.7 L37.65 37.7 37.3 38 38.4 38 38.65 38 Q40.35 38.05 41.7 39.4 42.8 40.45 43 42 L43 42.65 Q43 43.95 42.4 45"/>
  </g>
</svg>