<svg width="64" height="64" xmlns="http://www.w3.org/2000/svg" xmlns:xlink="http://www.w3.org/1999/xlink">
  <defs/>
  <g>
    <path stroke="none" fill="#FFFFFF" fill-opacity="0" d="M42.85 22.5 Q43.3 23 44 23 44.65 23 45.15 22.5 L51.55 15.85 Q52 15.35 52 14.65 52 13.95 51.55 13.5 51.05 13 50.4 13 L37.6 13 Q36.9 13 36.45 13.5 36 13.95 36 14.65 36 15.35 36.45 15.85 L42.85 22.5 M47.6 24.35 L47.3 24.6 47.3 24.65 Q45.85 26.05 44 26 42 26 40.7 24.6 L39.65 23.5 35.45 19.1 34.3 17.95 34.25 17.85 Q33.5 17.05 33.2 16.05 L33 14.65 Q33 12.75 34.25 11.5 35.55 10 37.6 10 L50.4 10 Q52.25 9.95 53.7 11.4 55 12.65 55 14.65 55 16.5 53.8 17.85 L53.7 17.95 52.2 19.55 49.9 21.95 47.6 24.35"/>
    <path stroke="none" fill="#FFFFFF" d="M47.6 24.35 L47.7 24.35 Q48.45 24.6 48.85 25.3 49.25 25.95 49.05 26.75 L46.3 38.75 46.15 39.55 46.15 39.6 45.95 40.45 45.25 41.6 44 42 39.35 42 Q38.75 42 38.3 41.7 L37.55 40.85 Q37.3 40.35 37.4 39.8 L39.15 24.65 Q39.25 23.95 39.65 23.5 L40.7 24.6 Q42 26 44 26 45.85 26.05 47.3 24.65 L47.3 24.6 47.6 24.35 M42.85 22.5 L36.45 15.85 Q36 15.35 36 14.65 36 13.95 36.45 13.5 36.9 13 37.6 13 L50.4 13 Q51.05 13 51.55 13.5 52 13.95 52 14.65 52 15.35 51.55 15.85 L45.15 22.5 Q44.65 23 44 23 43.3 23 42.85 22.5 M49.9 21.95 L52.2 19.55 54.05 20.2 Q55.1 20.6 55.6 21.6 56.2 22.55 55.9 23.65 L51.25 44 Q50.85 45.2 49.85 46.25 48.1 47.95 45.75 48 L18.25 48 Q15.9 47.95 14.15 46.25 13.15 45.2 12.75 44 L8.1 23.65 Q7.8 22.55 8.4 21.6 8.9 20.6 9.95 20.2 16.9 17.55 23.9 16.6 L32 16 33.2 16.05 Q33.5 17.05 34.25 17.85 L34.3 17.95 35.45 19.1 32 19 24.25 19.55 Q17.65 20.5 11.05 23 L11.05 23.05 15.65 43.15 16.25 44.1 16.35 44.2 Q17.2 44.95 18.35 45 L45.75 45 Q46.85 44.95 47.7 44.2 L47.75 44.1 48.4 43.15 53 23.05 53 23 52.95 23 49.9 21.95"/>
  </g>
</svg>