<svg width="64" height="64" xmlns="http://www.w3.org/2000/svg" xmlns:xlink="http://www.w3.org/1999/xlink">
  <defs/>
  <g>
    <path stroke="none" fill="#FFFFFF" fill-opacity="0" d="M42.45 16.95 L41.8 17.85 41.7 17.95 40.15 19.6 37.55 22.3 35.3 24.6 35.3 24.65 Q33.85 26.05 32 26 30 26 28.7 24.6 L26.5 22.3 23.9 19.6 22.3 17.95 22.25 17.85 21.6 16.95 Q21 15.9 21 14.65 21 12.75 22.25 11.5 23.55 10 25.6 10 L38.4 10 Q40.25 9.95 41.7 11.4 43 12.65 43 14.65 43 15.9 42.45 16.95 M30.85 22.5 Q31.3 23 32 23 32.65 23 33.15 22.5 L39.55 15.85 Q40 15.35 40 14.65 40 13.95 39.55 13.5 39.05 13 38.4 13 L25.6 13 Q24.9 13 24.45 13.5 24 13.95 24 14.65 24 15.35 24.45 15.85 L30.85 22.5"/>
    <path stroke="none" fill="#FFFFFF" d="M30.85 22.5 L24.45 15.85 Q24 15.35 24 14.65 24 13.95 24.45 13.5 24.9 13 25.6 13 L38.4 13 Q39.05 13 39.55 13.5 40 13.95 40 14.65 40 15.35 39.55 15.85 L33.15 22.5 Q32.65 23 32 23 31.3 23 30.85 22.5 M40.15 19.6 L41.7 17.95 41.8 17.85 42.45 16.95 42.85 17.05 Q48.45 18.05 54.05 20.2 55.1 20.6 55.6 21.6 56.2 22.55 55.9 23.65 L51.25 44 Q50.85 45.2 49.85 46.25 48.1 47.95 45.75 48 L18.25 48 Q15.9 47.95 14.15 46.25 13.15 45.2 12.75 44 L8.1 23.65 Q7.8 22.55 8.4 21.6 8.9 20.6 9.95 20.2 15.75 18 21.6 16.95 L22.25 17.85 22.3 17.95 23.9 19.6 Q17.45 20.55 11.05 23 L11.05 23.05 15.65 43.15 16.25 44.1 16.35 44.2 Q17.2 44.95 18.35 45 L45.75 45 Q46.85 44.95 47.7 44.2 L47.75 44.1 48.4 43.15 53 23.05 53 23 52.95 23 Q47.6 20.95 42.2 19.95 L40.15 19.6 M37.55 22.3 Q38 22.35 38.4 22.65 L39.05 23.45 39.2 24.5 37.35 40.25 36.7 41.5 Q36.1 42 35.35 42 L28.65 42 Q27.9 42 27.35 41.5 26.75 41 26.7 40.25 L24.85 24.5 Q24.75 23.7 25.25 23.05 25.7 22.4 26.5 22.3 L28.7 24.6 Q30 26 32 26 33.85 26.05 35.3 24.65 L35.3 24.6 37.55 22.3"/>
  </g>
</svg>