<svg width="64" height="64" xmlns="http://www.w3.org/2000/svg" xmlns:xlink="http://www.w3.org/1999/xlink">
  <defs/>
  <g>
    <path stroke="none" fill="#FFFFFF" d="M9.95 20.2 Q20.95 16 32 16 43.05 16 54.05 20.2 55.1 20.6 55.6 21.6 56.2 22.55 55.9 23.65 L51.25 44 Q50.85 45.2 49.85 46.25 48.1 47.95 45.75 48 L18.25 48 Q15.9 47.95 14.15 46.25 13.15 45.2 12.75 44 L8.1 23.65 Q7.8 22.55 8.4 21.6 8.9 20.6 9.95 20.2 M32 19 Q21.5 19 11.05 23 L11.05 23.05 15.65 43.15 16.25 44.1 16.35 44.2 Q17.2 44.95 18.35 45 L45.75 45 Q46.85 44.95 47.7 44.2 L47.75 44.1 48.4 43.15 53 23.05 53 23 52.95 23 Q42.5 19 32 19 M32 22 Q40.75 22 49.45 24.95 L45.55 42 18.45 42 14.55 24.95 Q23.25 22 32 22"/>
  </g>
</svg>