<svg width="64" height="64" xmlns="http://www.w3.org/2000/svg" xmlns:xlink="http://www.w3.org/1999/xlink">
  <defs/>
  <g>
    <path stroke="none" fill="#FFFFFF" d="M46 24 Q46 23.15 46.6 22.55 47.15 22 48 22 48.85 22 49.45 22.55 50 23.15 50 24 50 24.85 49.45 25.4 48.85 26 48 26 47.15 26 46.6 25.4 46 24.85 46 24 M38 24 Q38 23.15 38.6 22.55 39.15 22 40 22 40.85 22 41.45 22.55 42 23.15 42 24 42 24.85 41.45 25.4 40.85 26 40 26 39.15 26 38.6 25.4 38 24.85 38 24 M12.4 20.15 Q11 21.35 11 24 L11 40 Q11 45 16 45 L48 45 Q53 45 53 40 L53 24 Q53 19 48 19 L28.7 19 29.7 17.95 29.8 17.85 30.85 16 48 16 Q56 16 56 24 L56 40 Q56 48 48 48 L16 48 Q8 48 8 40 L8 24 Q8 19.8 10.2 17.8 L10.25 17.85 10.3 17.95 12.4 20.15 M25.4 22.45 Q25.95 22.85 26 23.8 L26 40.15 Q25.9 41.95 24.1 42 L15.9 42 Q14.05 41.95 14 40.1 L14 23.9 Q14.05 22.9 14.6 22.4 L16.7 24.6 Q18 26 20 26 21.85 26.05 23.3 24.65 L23.3 24.6 25.4 22.45 M38 40 Q38 39.15 38.6 38.55 39.15 38 40 38 40.85 38 41.45 38.55 42 39.15 42 40 42 40.85 41.45 41.4 40.85 42 40 42 39.15 42 38.6 41.4 38 40.85 38 40 M46 40 Q46 39.15 46.6 38.55 47.15 38 48 38 48.85 38 49.45 38.55 50 39.15 50 40 50 40.85 49.45 41.4 48.85 42 48 42 47.15 42 46.6 41.4 46 40.85 46 40 M38 32 Q38 31.15 38.6 30.55 39.15 30 40 30 40.85 30 41.45 30.55 42 31.15 42 32 42 32.85 41.45 33.4 40.85 34 40 34 39.15 34 38.6 33.4 38 32.85 38 32 M46 32 Q46 31.15 46.6 30.55 47.15 30 48 30 48.85 30 49.45 30.55 50 31.15 50 32 50 32.85 49.45 33.4 48.85 34 48 34 47.15 34 46.6 33.4 46 32.85 46 32 M18.85 22.5 L12.45 15.85 Q12 15.35 12 14.65 12 13.95 12.45 13.5 12.9 13 13.6 13 L26.4 13 Q27.05 13 27.55 13.5 28 13.95 28 14.65 28 15.35 27.55 15.85 L21.15 22.5 Q20.65 23 20 23 19.3 23 18.85 22.5 M30 40 Q30 39.15 30.6 38.55 31.15 38 32 38 32.85 38 33.45 38.55 34 39.15 34 40 34 40.85 33.45 41.4 32.85 42 32 42 31.15 42 30.6 41.4 30 40.85 30 40 M30 32 Q30 31.15 30.6 30.55 31.15 30 32 30 32.85 30 33.45 30.55 34 31.15 34 32 34 32.85 33.45 33.4 32.85 34 32 34 31.15 34 30.6 33.4 30 32.85 30 32 M30 24 Q30 23.15 30.6 22.55 31.15 22 32 22 32.85 22 33.45 22.55 34 23.15 34 24 34 24.85 33.45 25.4 32.85 26 32 26 31.15 26 30.6 25.4 30 24.85 30 24"/>
    <path stroke="none" fill="#FFFFFF" fill-opacity="0" d="M28.7 19 L25.4 22.45 23.3 24.6 23.3 24.65 Q21.85 26.05 20 26 18 26 16.7 24.6 L14.6 22.4 12.4 20.15 10.3 17.95 10.25 17.85 10.2 17.8 Q9 16.45 9 14.65 9 12.75 10.25 11.5 11.55 10 13.6 10 L26.4 10 Q28.25 9.95 29.7 11.4 31 12.65 31 14.65 L30.85 16 29.8 17.85 29.7 17.95 28.7 19 M18.85 22.5 Q19.3 23 20 23 20.65 23 21.15 22.5 L27.55 15.85 Q28 15.35 28 14.65 28 13.95 27.55 13.5 27.05 13 26.4 13 L13.6 13 Q12.9 13 12.45 13.5 12 13.95 12 14.65 12 15.35 12.45 15.85 L18.85 22.5"/>
  </g>
</svg>