<svg width="64" height="64" xmlns="http://www.w3.org/2000/svg" xmlns:xlink="http://www.w3.org/1999/xlink">
  <defs/>
  <g>
    <path stroke="none" fill="#FFFFFF" d="M53 23.3 Q52.65 19 48 19 L16 19 Q11 19 11 24 L11 40 Q11 45 16 45 L48 45 Q52.65 45 53 40.75 L56 37.8 56 40 Q56 48 48 48 L16 48 Q8 48 8 40 L8 24 Q8 16 16 16 L48 16 Q56 16 56 24 L56 26.2 53 23.3 M45.75 42 L16 42 Q14 42 14 40 L14 24 Q14 22 16 22 L45.8 22 45.5 22.25 Q44 23.55 44 25.6 L44 27 38.3 27 37.7 26.35 Q35.35 24 32 24 28.75 24 26.45 26.3 L26.4 26.35 Q24 28.7 24 32 24 35.3 26.4 37.7 28.7 40 32 40 35.35 40 37.7 37.7 L37.7 37.65 38.25 37 44 37 44 38.4 Q43.95 40.25 45.4 41.7 L45.75 42 M56.5 30.85 Q57 31.3 57 32 57 32.65 56.5 33.15 L49.85 39.55 Q49.35 40 48.65 40 47.95 40 47.5 39.55 47 39.05 47 38.4 L47 34 36.6 34 35.55 35.55 Q34.1 37 32 37 29.95 37 28.5 35.55 27 34.05 27 32 27 29.9 28.5 28.45 29.95 27 32 27 34.1 27 35.55 28.45 L36.6 30 47 30 47 25.6 Q47 24.9 47.5 24.45 47.95 24 48.65 24 49.35 24 49.85 24.45 L56.5 30.85"/>
    <path stroke="none" fill="#FFFFFF" fill-opacity="0" d="M56.5 30.85 L49.85 24.45 Q49.35 24 48.65 24 47.95 24 47.5 24.45 47 24.9 47 25.6 L47 30 36.6 30 35.55 28.45 Q34.1 27 32 27 29.95 27 28.5 28.45 27 29.9 27 32 27 34.05 28.5 35.55 29.95 37 32 37 34.1 37 35.55 35.55 L36.6 34 47 34 47 38.4 Q47 39.05 47.5 39.55 47.95 40 48.65 40 49.35 40 49.85 39.55 L56.5 33.15 Q57 32.65 57 32 57 31.3 56.5 30.85 M45.8 22 Q46.95 21 48.65 21 50.5 21 51.85 22.25 L51.95 22.3 53 23.3 56 26.2 58.6 28.7 Q60 30 60 32 60.05 33.85 58.65 35.3 L58.6 35.3 56 37.8 53 40.75 51.95 41.7 51.85 41.8 Q50.5 43 48.65 43 46.9 43 45.75 42 L45.4 41.7 Q43.95 40.25 44 38.4 L44 37 38.25 37 37.7 37.65 37.7 37.7 Q35.35 40 32 40 28.7 40 26.4 37.7 24 35.3 24 32 24 28.7 26.4 26.35 L26.45 26.3 Q28.75 24 32 24 35.35 24 37.7 26.35 L38.3 27 44 27 44 25.6 Q44 23.55 45.5 22.25 L45.8 22"/>
  </g>
</svg>