<svg width="64" height="64" xmlns="http://www.w3.org/2000/svg" xmlns:xlink="http://www.w3.org/1999/xlink">
  <defs/>
  <g>
    <path stroke="none" fill="#FFFFFF" d="M42.85 22.5 L36.45 15.85 Q36 15.35 36 14.65 36 13.95 36.45 13.5 36.9 13 37.6 13 L50.4 13 Q51.05 13 51.55 13.5 52 13.95 52 14.65 52 15.35 51.55 15.85 L45.15 22.5 Q44.65 23 44 23 43.3 23 42.85 22.5 M38.6 22.45 L40.7 24.6 Q42 26 44 26 45.85 26.05 47.3 24.65 L47.3 24.6 49.4 22.45 Q49.95 22.9 50 23.9 L50 40.1 Q49.95 41.95 48.1 42 L39.9 42 Q38.1 41.95 38 40.15 L38 23.85 Q38.05 22.9 38.6 22.45 M51.65 20.15 L53.7 17.95 53.8 17.85 53.85 17.85 Q56 19.8 56 24 L56 40 Q56 48 48 48 L16 48 Q8 48 8 40 L8 24 Q8 16 16 16 L33.2 16 Q33.5 17 34.25 17.85 L34.3 17.95 35.3 19 16 19 Q11 19 11 24 L11 40 Q11 45 16 45 L48 45 Q53 45 53 40 L53 24 Q53 21.35 51.65 20.15 M26 24 Q26 24.85 25.4 25.4 24.85 26 24 26 23.15 26 22.55 25.4 22 24.85 22 24 22 23.15 22.55 22.55 23.15 22 24 22 24.85 22 25.4 22.55 26 23.15 26 24 M34 24 Q34 24.85 33.4 25.4 32.85 26 32 26 31.15 26 30.55 25.4 30 24.85 30 24 30 23.15 30.55 22.55 31.15 22 32 22 32.85 22 33.4 22.55 34 23.15 34 24 M18 24 Q18 24.85 17.4 25.4 16.85 26 16 26 15.15 26 14.55 25.4 14 24.85 14 24 14 23.15 14.55 22.55 15.15 22 16 22 16.85 22 17.4 22.55 18 23.15 18 24 M18 32 Q18 32.85 17.4 33.4 16.85 34 16 34 15.15 34 14.55 33.4 14 32.85 14 32 14 31.15 14.55 30.55 15.15 30 16 30 16.85 30 17.4 30.55 18 31.15 18 32 M18 40 Q18 40.85 17.4 41.4 16.85 42 16 42 15.15 42 14.55 41.4 14 40.85 14 40 14 39.15 14.55 38.55 15.15 38 16 38 16.85 38 17.4 38.55 18 39.15 18 40 M34 32 Q34 32.85 33.4 33.4 32.85 34 32 34 31.15 34 30.55 33.4 30 32.85 30 32 30 31.15 30.55 30.55 31.15 30 32 30 32.85 30 33.4 30.55 34 31.15 34 32 M26 32 Q26 32.85 25.4 33.4 24.85 34 24 34 23.15 34 22.55 33.4 22 32.85 22 32 22 31.15 22.55 30.55 23.15 30 24 30 24.85 30 25.4 30.55 26 31.15 26 32 M26 40 Q26 40.85 25.4 41.4 24.85 42 24 42 23.15 42 22.55 41.4 22 40.85 22 40 22 39.15 22.55 38.55 23.15 38 24 38 24.85 38 25.4 38.55 26 39.15 26 40 M34 40 Q34 40.85 33.4 41.4 32.85 42 32 42 31.15 42 30.55 41.4 30 40.85 30 40 30 39.15 30.55 38.55 31.15 38 32 38 32.85 38 33.4 38.55 34 39.15 34 40"/>
    <path stroke="none" fill="#FFFFFF" fill-opacity="0" d="M42.85 22.5 Q43.3 23 44 23 44.65 23 45.15 22.5 L51.55 15.85 Q52 15.35 52 14.65 52 13.95 51.55 13.5 51.05 13 50.4 13 L37.6 13 Q36.9 13 36.45 13.5 36 13.95 36 14.65 36 15.35 36.45 15.85 L42.85 22.5 M49.4 22.45 L47.3 24.6 47.3 24.65 Q45.85 26.05 44 26 42 26 40.7 24.6 L38.6 22.45 35.3 19 34.3 17.95 34.25 17.85 Q33.5 17 33.2 16 L33 14.65 Q33 12.75 34.25 11.5 35.55 10 37.6 10 L50.4 10 Q52.25 9.95 53.7 11.4 55 12.65 55 14.65 55 16.5 53.85 17.85 L53.8 17.85 53.7 17.95 51.65 20.15 49.4 22.45"/>
  </g>
</svg>