<svg width="64" height="64" xmlns="http://www.w3.org/2000/svg" xmlns:xlink="http://www.w3.org/1999/xlink">
  <defs/>
  <g>
    <path stroke="none" fill="#FFFFFF" fill-opacity="0" d="M21.2 16 L21 14.65 Q21 12.75 22.25 11.5 23.55 10 25.6 10 L38.4 10 Q40.25 9.95 41.7 11.4 43 12.65 43 14.65 L42.85 16 41.8 17.85 41.7 17.95 40.7 19 37.8 22 35.3 24.6 35.3 24.65 Q33.85 26.05 32 26 30 26 28.7 24.6 L26.2 22 23.3 19 22.3 17.95 22.25 17.85 Q21.5 17 21.2 16 M30.85 22.5 Q31.3 23 32 23 32.65 23 33.15 22.5 L39.55 15.85 Q40 15.35 40 14.65 40 13.95 39.55 13.5 39.05 13 38.4 13 L25.6 13 Q24.9 13 24.45 13.5 24 13.95 24 14.65 24 15.35 24.45 15.85 L30.85 22.5"/>
    <path stroke="none" fill="#FFFFFF" d="M30.85 22.5 L24.45 15.85 Q24 15.35 24 14.65 24 13.95 24.45 13.5 24.9 13 25.6 13 L38.4 13 Q39.05 13 39.55 13.5 40 13.95 40 14.65 40 15.35 39.55 15.85 L33.15 22.5 Q32.65 23 32 23 31.3 23 30.85 22.5 M42.85 16 L48 16 Q56 16 56 24 L56 40 Q56 48 48 48 L16 48 Q8 48 8 40 L8 24 Q8 16 16 16 L21.2 16 Q21.5 17 22.25 17.85 L22.3 17.95 23.3 19 16 19 Q11 19 11 24 L11 40 Q11 45 16 45 L48 45 Q53 45 53 40 L53 24 Q53 19 48 19 L40.7 19 41.7 17.95 41.8 17.85 42.85 16 M26.2 22 L28.7 24.6 Q30 26 32 26 33.85 26.05 35.3 24.65 L35.3 24.6 37.8 22 40.15 22 Q41.95 22.1 42 23.9 L42 40.1 Q41.95 41.95 40.1 42 L23.9 42 Q22.1 41.95 22 40.15 L22 23.85 Q22.1 22.1 23.8 22 L26.2 22 M50 24 Q50 24.85 49.4 25.4 48.85 26 48 26 47.15 26 46.55 25.4 46 24.85 46 24 46 23.15 46.55 22.55 47.15 22 48 22 48.85 22 49.4 22.55 50 23.15 50 24 M50 32 Q50 32.85 49.4 33.4 48.85 34 48 34 47.15 34 46.55 33.4 46 32.85 46 32 46 31.15 46.55 30.55 47.15 30 48 30 48.85 30 49.4 30.55 50 31.15 50 32 M50 40 Q50 40.85 49.4 41.4 48.85 42 48 42 47.15 42 46.55 41.4 46 40.85 46 40 46 39.15 46.55 38.55 47.15 38 48 38 48.85 38 49.4 38.55 50 39.15 50 40 M18 24 Q18 24.85 17.4 25.4 16.85 26 16 26 15.15 26 14.55 25.4 14 24.85 14 24 14 23.15 14.55 22.55 15.15 22 16 22 16.85 22 17.4 22.55 18 23.15 18 24 M18 32 Q18 32.85 17.4 33.4 16.85 34 16 34 15.15 34 14.55 33.4 14 32.85 14 32 14 31.15 14.55 30.55 15.15 30 16 30 16.85 30 17.4 30.55 18 31.15 18 32 M18 40 Q18 40.85 17.4 41.4 16.85 42 16 42 15.15 42 14.55 41.4 14 40.85 14 40 14 39.15 14.55 38.55 15.15 38 16 38 16.85 38 17.4 38.55 18 39.15 18 40"/>
  </g>
</svg>