<svg width="64" height="64" xmlns="http://www.w3.org/2000/svg" xmlns:xlink="http://www.w3.org/1999/xlink">
  <defs/>
  <g>
    <path stroke="none" fill="#FFFFFF" d="M48 56 L16 56 Q8 56 8 48 L8 16 Q8 8 16 8 L48 8 Q56 8 56 16 L56 48 Q56 56 48 56 M46.1 31 L45 31 45 29 46.05 29 Q46.45 29 46.7 29.25 L47 30 46.75 30.7 46.7 30.7 46.45 30.9 46.1 31 M48.1 32.1 Q49 31.25 49 30 49 28.75 48.1 27.85 47.25 27 46.05 27 L44 27 Q43.6 27 43.3 27.3 43 27.6 43 28 L43 36 Q43 36.4 43.3 36.7 43.6 37 44 37 L44.7 36.7 45 36 45 33 45.4 33 47.1 36.45 Q47.3 36.8 47.7 36.95 L48.45 36.9 48.95 36.35 Q49.1 35.95 48.9 35.55 L47.45 32.65 48.1 32.15 48.1 32.1 M36 28 L36 36 Q36 36.4 36.3 36.7 L37 37 41 37 41.7 36.7 42 36 41.7 35.3 Q41.4 35 41 35 L38 35 38 33 41 33 41.7 32.7 42 32 41.7 31.3 Q41.4 31 41 31 L38 31 38 29 41 29 41.7 28.7 42 28 41.7 27.3 Q41.4 27 41 27 L37 27 Q36.6 27 36.3 27.3 36 27.6 36 28 M20 31 L17 31 17 29 20 29 20.7 28.7 21 28 20.7 27.3 Q20.4 27 20 27 L16 27 Q15.6 27 15.3 27.3 15 27.6 15 28 L15 36 Q15 36.4 15.3 36.7 L16 37 20 37 20.7 36.7 21 36 20.7 35.3 Q20.4 35 20 35 L17 35 17 33 20 33 20.7 32.7 21 32 20.7 31.3 Q20.4 31 20 31 M30 29 L31 29 31 36 Q31 36.4 31.3 36.7 31.6 37 32 37 L32.7 36.7 33 36 33 29 34 29 Q34.4 29 34.7 28.7 L35 28 34.7 27.3 Q34.4 27 34 27 L30 27 Q29.6 27 29.3 27.3 29 27.6 29 28 29 28.4 29.3 28.7 L30 29 M28 36 L28 28 27.7 27.3 Q27.4 27 27 27 26.6 27 26.3 27.3 26 27.6 26 28 L26 31.75 23.9 27.55 23.45 27.1 22.8 27.05 22.25 27.4 Q22 27.65 22 28 L22 36 Q22 36.4 22.3 36.7 22.6 37 23 37 L23.7 36.7 24 36 24 32.25 26.1 36.45 Q26.25 36.75 26.6 36.9 L27.25 37 27.8 36.65 28 36"/>
  </g>
</svg>