<svg width="64" height="64" xmlns="http://www.w3.org/2000/svg" xmlns:xlink="http://www.w3.org/1999/xlink">
  <defs/>
  <g>
    <path stroke="none" fill="#FFFFFF" d="M39.05 22 L41.05 22 41.75 21.7 42.05 21 41.75 20.3 Q41.45 20 41.05 20 L39.05 20 Q37.85 20 36.95 20.9 36.05 21.8 36.05 23 36.05 24.2 36.95 25.1 37.85 26 39 26 L39.1 26 Q39.45 26 39.75 26.3 L40.05 27 39.75 27.7 39.05 28 37.05 28 Q36.65 28 36.35 28.3 36.05 28.6 36.05 29 L36.35 29.7 Q36.65 30 37.05 30 L39.05 30 Q40.25 30 41.15 29.1 42.05 28.2 42.05 27 42.05 25.8 41.15 24.9 40.25 24 39.1 24 L39 24 Q38.65 24 38.35 23.7 38.05 23.4 38.05 23 38.05 22.6 38.35 22.3 38.65 22 39.05 22 M48.05 20 L44.05 20 Q43.65 20 43.35 20.3 43.05 20.6 43.05 21 L43.05 29 Q43.05 29.4 43.35 29.7 43.65 30 44.05 30 L48.05 30 48.75 29.7 49.05 29 48.75 28.3 Q48.45 28 48.05 28 L45.05 28 45.05 26 48.05 26 48.75 25.7 49.05 25 48.75 24.3 Q48.45 24 48.05 24 L45.05 24 45.05 22 48.05 22 48.75 21.7 49.05 21 48.75 20.3 Q48.45 20 48.05 20 M48 8 Q56 8 56 16 L56 48 Q56 56 48 56 L16 56 Q8 56 8 48 L8 16 Q8 8 16 8 L48 8 M43.05 34 L43.05 42 Q43.05 42.4 43.35 42.7 43.65 43 44.05 43 L44.75 42.7 45.05 42 45.05 39 45.45 39 47.15 42.45 47.75 42.95 48.5 42.9 49 42.35 Q49.15 41.95 48.95 41.55 L47.2 38 48.95 34.45 49 33.7 48.5 33.1 47.75 33.05 47.15 33.55 45.45 37 45.05 37 45.05 34 44.75 33.3 Q44.45 33 44.05 33 43.65 33 43.35 33.3 43.05 33.6 43.05 34 M36.05 35.8 L36.05 42 36.35 42.7 Q36.65 43 37.05 43 L37.75 42.7 38.05 42 38.05 40 40.05 40 40.05 42 Q40.05 42.4 40.35 42.7 40.65 43 41.05 43 L41.75 42.7 42.05 42 42.05 35.8 Q42.05 34.65 41.15 33.8 L41.1 33.75 Q40.2 33 39.05 33 37.8 33 36.95 33.75 L36.9 33.8 Q36.05 34.65 36.05 35.8 M22.05 22.8 L22.05 29 Q22.05 29.4 22.35 29.7 22.65 30 23.05 30 L23.75 29.7 24.05 29 24.05 27 26.05 27 26.05 29 Q26.05 29.4 26.35 29.7 26.65 30 27.05 30 L27.75 29.7 28.05 29 28.05 22.8 Q28.05 21.65 27.15 20.8 L27.1 20.75 Q26.2 20 25.05 20 23.8 20 22.95 20.75 L22.9 20.8 Q22.05 21.65 22.05 22.8 M24.05 22.8 Q24.05 22.45 24.3 22.2 L24.25 22.3 Q24.6 22 25.05 22 25.5 22 25.8 22.3 L25.8 22.25 26.05 22.8 26.05 25 24.05 25 24.05 22.8 M31.05 27.2 L31.05 21 30.75 20.3 30.05 20 Q29.65 20 29.35 20.3 29.05 20.6 29.05 21 L29.05 27.2 Q29.05 28.35 29.9 29.2 L29.95 29.3 Q30.8 30 32.05 30 33.2 30 34.1 29.3 L34.15 29.25 Q35.05 28.35 35.05 27.2 L35.05 21 34.75 20.3 Q34.45 20 34.05 20 33.65 20 33.35 20.3 33.05 20.6 33.05 21 L33.05 27.2 32.8 27.8 32.8 27.75 32.05 28 31.25 27.75 31.05 27.2 M18.1 26 L19.35 25.7 19.45 25.65 20.1 25.15 20.1 25.1 Q21 24.25 21 23 21 21.75 20.1 20.85 19.25 20 18.05 20 L16 20 Q15.6 20 15.3 20.3 15 20.6 15 21 L15 29 Q15 29.4 15.3 29.7 L16 30 16.7 29.7 17 29 17 26 18.1 26 M18.1 24 L17 24 17 22 18.05 22 18.7 22.25 19 23 18.75 23.7 18.7 23.7 18.45 23.9 18.1 24 M21 36 Q21 34.75 20.1 33.85 19.25 33 18.05 33 L16 33 Q15.6 33 15.3 33.3 15 33.6 15 34 L15 42 Q15 42.4 15.3 42.7 L16 43 18.1 43 19.35 42.7 19.45 42.65 20.1 42.15 20.1 42.1 Q21 41.25 21 40 21 38.85 20.25 38 21 37.2 21 36 M18.45 36.9 L18.25 37 17 37 17 35 18.05 35 18.7 35.25 19 36 18.75 36.7 18.7 36.7 18.45 36.9 M17 41 L17 39 18.25 39 Q18.5 39.05 18.7 39.25 L19 40 18.75 40.7 18.7 40.7 18.45 40.9 18.1 41 17 41 M34.05 33 L30.05 33 Q29.65 33 29.35 33.3 29.05 33.6 29.05 34 L29.05 42 Q29.05 42.4 29.35 42.7 29.65 43 30.05 43 L34.05 43 34.75 42.7 35.05 42 34.75 41.3 Q34.45 41 34.05 41 L31.05 41 31.05 39 34.05 39 34.75 38.7 35.05 38 34.75 37.3 Q34.45 37 34.05 37 L31.05 37 31.05 35 34.05 35 34.75 34.7 35.05 34 34.75 33.3 Q34.45 33 34.05 33 M38.05 35.8 Q38.05 35.45 38.3 35.2 L38.25 35.3 Q38.6 35 39.05 35 39.5 35 39.8 35.3 L39.8 35.25 40.05 35.8 40.05 38 38.05 38 38.05 35.8 M25.15 37 L24.05 37 24.05 35 25.1 35 Q25.5 35 25.75 35.25 L26.05 36 25.8 36.7 25.75 36.7 25.5 36.9 25.15 37 M27.15 38.1 Q28.05 37.25 28.05 36 28.05 34.75 27.15 33.85 26.3 33 25.1 33 L23.05 33 Q22.65 33 22.35 33.3 22.05 33.6 22.05 34 L22.05 42 Q22.05 42.4 22.35 42.7 22.65 43 23.05 43 L23.75 42.7 24.05 42 24.05 39 24.45 39 26.15 42.45 26.75 42.95 27.5 42.9 28 42.35 27.95 41.55 26.5 38.65 27.15 38.15 27.15 38.1"/>
  </g>
</svg>