<svg width="64" height="64" xmlns="http://www.w3.org/2000/svg" xmlns:xlink="http://www.w3.org/1999/xlink">
  <defs/>
  <g>
    <path stroke="none" fill="#FFFFFF" d="M48 8 Q56 8 56 16 L56 48 Q56 56 48 56 L16 56 Q8 56 8 48 L8 16 Q8 8 16 8 L48 8 M48.05 27 L44.05 27 Q43.65 27 43.35 27.3 43.05 27.6 43.05 28 L43.05 36 Q43.05 36.4 43.35 36.7 43.65 37 44.05 37 L48.05 37 48.75 36.7 49.05 36 48.75 35.3 Q48.45 35 48.05 35 L45.05 35 45.05 33 48.05 33 48.75 32.7 49.05 32 48.75 31.3 Q48.45 31 48.05 31 L45.05 31 45.05 29 48.05 29 48.75 28.7 49.05 28 48.75 27.3 Q48.45 27 48.05 27 M39.05 29 L41.05 29 41.75 28.7 42.05 28 41.75 27.3 Q41.45 27 41.05 27 L39.05 27 Q37.85 27 36.95 27.9 36.05 28.8 36.05 30 36.05 31.2 36.95 32.1 37.85 33 39 33 L39.1 33 Q39.45 33 39.75 33.3 L40.05 34 39.75 34.7 39.05 35 37.05 35 Q36.65 35 36.35 35.3 36.05 35.6 36.05 36 L36.35 36.7 Q36.65 37 37.05 37 L39.05 37 Q40.25 37 41.15 36.1 42.05 35.2 42.05 34 42.05 32.8 41.15 31.9 40.25 31 39.1 31 L39 31 Q38.65 31 38.35 30.7 38.05 30.4 38.05 30 38.05 29.6 38.35 29.3 38.65 29 39.05 29 M18.1 33 L19.35 32.7 19.45 32.65 20.1 32.15 20.1 32.1 Q21 31.25 21 30 21 28.75 20.1 27.85 19.25 27 18.05 27 L16 27 Q15.6 27 15.3 27.3 15 27.6 15 28 L15 36 Q15 36.4 15.3 36.7 L16 37 16.7 36.7 17 36 17 33 18.1 33 M18.1 31 L17 31 17 29 18.05 29 18.7 29.25 19 30 18.75 30.7 18.7 30.7 18.45 30.9 18.1 31 M31.05 34.2 L31.05 28 30.75 27.3 30.05 27 Q29.65 27 29.35 27.3 29.05 27.6 29.05 28 L29.05 34.2 Q29.05 35.35 29.9 36.2 L29.95 36.3 Q30.8 37 32.05 37 33.2 37 34.1 36.3 L34.15 36.25 Q35.05 35.35 35.05 34.2 L35.05 28 34.75 27.3 Q34.45 27 34.05 27 33.65 27 33.35 27.3 33.05 27.6 33.05 28 L33.05 34.2 32.8 34.8 32.8 34.75 32.05 35 31.25 34.75 31.05 34.2 M24.05 29.8 Q24.05 29.45 24.3 29.2 L24.25 29.3 Q24.6 29 25.05 29 25.5 29 25.8 29.3 L25.8 29.25 26.05 29.8 26.05 32 24.05 32 24.05 29.8 M22.05 29.8 L22.05 36 Q22.05 36.4 22.35 36.7 22.65 37 23.05 37 L23.75 36.7 24.05 36 24.05 34 26.05 34 26.05 36 Q26.05 36.4 26.35 36.7 26.65 37 27.05 37 L27.75 36.7 28.05 36 28.05 29.8 Q28.05 28.65 27.15 27.8 L27.1 27.75 Q26.2 27 25.05 27 23.8 27 22.95 27.75 L22.9 27.8 Q22.05 28.65 22.05 29.8"/>
  </g>
</svg>