<svg width="64" height="64" xmlns="http://www.w3.org/2000/svg" xmlns:xlink="http://www.w3.org/1999/xlink">
  <defs/>
  <g>
    <path stroke="none" fill="#FFFFFF" d="M47 23 L47 31 47.3 31.7 48 32 50 32 50.7 31.7 51 31 50.7 30.3 50 30 49 30 49 23 48.7 22.3 Q48.4 22 48 22 47.6 22 47.3 22.3 47 22.6 47 23 M42 23 L42 31 Q42 31.4 42.3 31.7 42.6 32 43 32 L45 32 45.7 31.7 46 31 45.7 30.3 Q45.4 30 45 30 L44 30 44 23 43.7 22.3 Q43.4 22 43 22 42.6 22 42.3 22.3 42 22.6 42 23 M48 8 Q56 8 56 16 L56 48 Q56 56 48 56 L16 56 Q8 56 8 48 L8 16 Q8 8 16 8 L48 8 M35.85 22.8 Q35 23.65 35 24.8 L35 29.25 Q35 30.35 35.85 31.2 L35.9 31.3 Q36.75 32 38 32 39.15 32 40.05 31.3 L40.1 31.25 Q41 30.35 41 29.25 L41 24.8 Q41 23.65 40.1 22.8 L40.05 22.75 Q39.15 22 38 22 36.75 22 35.9 22.75 L35.85 22.8 M40.9 41.55 L39.15 38 40.9 34.45 40.95 33.7 40.45 33.1 39.7 33.05 Q39.3 33.2 39.1 33.55 L37.4 37 37 37 37 34 36.7 33.3 Q36.4 33 36 33 35.6 33 35.3 33.3 35 33.6 35 34 L35 42 35.3 42.7 Q35.6 43 36 43 L36.7 42.7 37 42 37 39 37.4 39 39.1 42.45 Q39.3 42.8 39.7 42.95 L40.45 42.9 40.95 42.35 Q41.1 41.95 40.9 41.55 M26.1 31.25 Q27 30.35 27 29.25 L26.7 28.55 Q26.4 28.25 26 28.25 25.6 28.25 25.3 28.55 25 28.85 25 29.25 L24.75 29.8 24.75 29.75 24 30 23.2 29.75 23 29.25 23 24.8 Q23 24.45 23.25 24.2 L23.2 24.3 Q23.55 24 24 24 24.45 24 24.75 24.3 L24.75 24.25 25 24.8 Q25 25.2 25.3 25.5 25.6 25.8 26 25.8 L26.7 25.5 27 24.8 Q27 23.65 26.1 22.8 L26.05 22.75 Q25.15 22 24 22 22.75 22 21.9 22.75 L21.85 22.8 Q21 23.65 21 24.8 L21 29.25 Q21 30.35 21.85 31.2 L21.9 31.3 Q22.75 32 24 32 25.15 32 26.05 31.3 L26.1 31.25 M33.1 27.1 Q34 26.25 34 25 34 23.75 33.1 22.85 32.25 22 31.05 22 L29 22 Q28.6 22 28.3 22.3 28 22.6 28 23 L28 31 Q28 31.4 28.3 31.7 28.6 32 29 32 L29.7 31.7 30 31 30 28 30.4 28 32.1 31.45 Q32.3 31.8 32.7 31.95 L33.45 31.9 33.95 31.35 33.9 30.55 32.45 27.65 33.1 27.15 33.1 27.1 M31.1 26 L30 26 30 24 31.05 24 31.7 24.25 32 25 31.75 25.7 31.7 25.7 31.45 25.9 31.1 26 M37 24.8 Q37 24.45 37.25 24.2 L37.2 24.3 Q37.55 24 38 24 38.45 24 38.75 24.3 L38.75 24.25 39 24.8 39 29.25 38.75 29.8 38.75 29.75 38 30 37.2 29.75 37 29.25 37 24.8 M17 24 L19 24 19.7 23.7 20 23 19.7 22.3 Q19.4 22 19 22 L17 22 Q15.8 22 14.9 22.9 14 23.8 14 25 14 26.2 14.9 27.1 15.8 28 16.95 28 L17.05 28 Q17.4 28 17.7 28.3 L18 29 17.7 29.7 17 30 15 30 Q14.6 30 14.3 30.3 14 30.6 14 31 L14.3 31.7 Q14.6 32 15 32 L17 32 Q18.2 32 19.1 31.1 20 30.2 20 29 20 27.8 19.1 26.9 18.2 26 17.05 26 L16.95 26 16.3 25.7 Q16 25.4 16 25 16 24.6 16.3 24.3 16.6 24 17 24 M14 34 L14 42 14.3 42.7 Q14.6 43 15 43 L19 43 19.7 42.7 20 42 19.7 41.3 Q19.4 41 19 41 L16 41 16 34 15.7 33.3 Q15.4 33 15 33 14.6 33 14.3 33.3 14 33.6 14 34 M33.1 42.25 Q34 41.35 34 40.25 L33.7 39.55 Q33.4 39.25 33 39.25 32.6 39.25 32.3 39.55 32 39.85 32 40.25 L31.75 40.8 31.75 40.75 31 41 30.2 40.75 30 40.25 30 35.8 30.25 35.2 30.2 35.3 Q30.55 35 31 35 31.45 35 31.75 35.3 L31.75 35.25 32 35.8 Q32 36.2 32.3 36.5 L33 36.8 33.7 36.5 34 35.8 Q34 34.65 33.1 33.8 L33.05 33.75 Q32.15 33 31 33 29.75 33 28.9 33.75 L28.85 33.8 Q28 34.65 28 35.8 L28 40.25 Q28 41.35 28.85 42.2 L28.9 42.3 Q29.75 43 31 43 32.15 43 33.05 42.3 L33.1 42.25 M21.85 33.8 Q21 34.65 21 35.8 L21 40.25 Q21 41.35 21.85 42.2 L21.9 42.3 Q22.75 43 24 43 25.15 43 26.05 42.3 L26.1 42.25 Q27 41.35 27 40.25 L27 35.8 Q27 34.65 26.1 33.8 L26.05 33.75 Q25.15 33 24 33 22.75 33 21.9 33.75 L21.85 33.8 M23 35.8 Q23 35.45 23.25 35.2 L23.2 35.3 Q23.55 35 24 35 24.45 35 24.75 35.3 L24.75 35.25 25 35.8 25 40.25 24.75 40.8 24.75 40.75 24 41 23.2 40.75 23 40.25 23 35.8"/>
  </g>
</svg>