<svg width="64" height="64" xmlns="http://www.w3.org/2000/svg" xmlns:xlink="http://www.w3.org/1999/xlink">
  <defs/>
  <g>
    <path stroke="none" fill="#FFFFFF" d="M22.7 32.05 Q21.2 31.8 20.9 33.3 L20.05 38.3 Q19.75 39.8 21.25 40.05 L26.25 40.95 Q27.75 41.2 28.05 39.7 L28.9 34.7 Q29.2 33.2 27.7 32.95 L22.7 32.05 M23 30 L23 27 26 27 26 23 23 23 23 20 19 20 19 23 16 23 16 27 19 27 19 30 23 30 M40 25 Q40 24.15 39.45 23.6 38.85 23 38 23 37.15 23 36.6 23.6 36 24.15 36 25 36 25.85 36.6 26.45 37.15 27 38 27 38.85 27 39.45 26.45 40 25.85 40 25 M21.45 42.6 Q18.9 42.65 18.3 44.5 16.15 49.9 12.85 48.85 7.9 47.25 8 41.4 9.3 31.2 11.05 24.95 12.65 16.65 16.1 16 L32 15.1 47.9 16 Q51.35 16.65 52.95 24.95 54.7 31.2 56 41.4 56.15 47.25 51.15 48.85 47.85 49.9 45.7 44.5 45.15 42.65 42.55 42.6 L21.45 42.6 M36.3 32.95 Q34.8 33.2 35.05 34.7 L35.95 39.7 Q36.2 41.2 37.7 40.95 L42.7 40.05 Q44.2 39.8 43.95 38.3 L43.05 33.3 Q42.8 31.8 41.3 32.05 L36.3 32.95 M44 29 Q44 28.15 43.45 27.6 42.85 27 42 27 41.15 27 40.6 27.6 40 28.15 40 29 40 29.85 40.6 30.45 41.15 31 42 31 42.85 31 43.45 30.45 44 29.85 44 29 M48 25 Q48 24.15 47.45 23.6 46.85 23 46 23 45.15 23 44.6 23.6 44 24.15 44 25 44 25.85 44.6 26.45 45.15 27 46 27 46.85 27 47.45 26.45 48 25.85 48 25 M44 21 Q44 20.15 43.45 19.6 42.85 19 42 19 41.15 19 40.6 19.6 40 20.15 40 21 40 21.85 40.6 22.45 41.15 23 42 23 42.85 23 43.45 22.45 44 21.85 44 21"/>
  </g>
</svg>